<?xml version="1.0" standalone="no"?>
<!DOCTYPE svg PUBLIC "-//W3C//DTD SVG 20010904//EN"
 "http://www.w3.org/TR/2001/REC-SVG-20010904/DTD/svg10.dtd">
<svg version="1.0" xmlns="http://www.w3.org/2000/svg"
 width="280.000000pt" height="280.000000pt" viewBox="0 0 280.000000 280.000000"
 preserveAspectRatio="xMidYMid meet">
<metadata>
Created by potrace 1.11, written by Peter Selinger 2001-2013
</metadata>
<g transform="translate(0.000000,280.000000) scale(0.100000,-0.100000)"
fill="#000000" stroke="none">
<path d="M1185 2784 c-297 -52 -570 -190 -774 -394 -94 -94 -188 -222 -250
-339 -48 -93 -113 -266 -126 -341 -4 -19 -13 -66 -20 -105 -13 -71 -13 -356 0
-425 56 -301 194 -568 398 -771 92 -92 172 -152 312 -236 87 -52 278 -121 415
-149 62 -13 133 -18 260 -18 194 -1 301 17 469 76 404 142 720 465 856 871 36
109 39 119 59 241 13 77 15 350 3 406 -3 14 -8 41 -11 60 -3 19 -17 75 -31
125 -86 296 -260 549 -504 733 -70 53 -233 152 -250 152 -4 0 -25 9 -47 19
-54 26 -194 69 -284 88 -102 21 -371 24 -475 7z m370 -599 c321 -66 568 -316
630 -635 59 -308 -75 -634 -333 -809 -61 -41 -162 -95 -162 -86 0 3 -13 -1
-28 -9 -87 -45 -320 -56 -457 -21 -198 50 -372 176 -482 350 -86 137 -125 283
-119 452 6 207 84 389 227 532 132 132 243 188 464 235 27 5 223 -1 260 -9z"/>
</g>
</svg>
