<svg width="494" height="100" viewBox="0 0 494 100" fill="none" xmlns="http://www.w3.org/2000/svg">
<path d="M180.79 32.634L169.504 69H161.584L154.258 42.138L146.932 69H139.012L127.66 32.634H135.316L142.906 61.872L150.628 32.634H158.482L165.874 61.74L173.398 32.634H180.79ZM202.187 69.594C198.755 69.594 195.653 68.824 192.881 67.284C190.109 65.7 187.931 63.5 186.347 60.684C184.763 57.824 183.971 54.524 183.971 50.784C183.971 47.088 184.785 43.81 186.413 40.95C188.041 38.09 190.263 35.89 193.079 34.35C195.895 32.81 199.041 32.04 202.517 32.04C205.993 32.04 209.139 32.81 211.955 34.35C214.771 35.89 216.993 38.09 218.621 40.95C220.249 43.81 221.063 47.088 221.063 50.784C221.063 54.48 220.227 57.758 218.555 60.618C216.883 63.478 214.595 65.7 211.691 67.284C208.831 68.824 205.663 69.594 202.187 69.594ZM202.187 63.258C204.123 63.258 205.927 62.774 207.599 61.806C209.315 60.838 210.701 59.43 211.757 57.582C212.813 55.69 213.341 53.424 213.341 50.784C213.341 48.144 212.835 45.9 211.823 44.052C210.811 42.16 209.469 40.752 207.797 39.828C206.125 38.86 204.321 38.376 202.385 38.376C200.449 38.376 198.667 38.86 197.039 39.828C195.411 40.752 194.091 42.16 193.079 44.052C192.111 45.9 191.627 48.144 191.627 50.784C191.627 53.424 192.089 55.69 193.013 57.582C193.981 59.474 195.257 60.904 196.841 61.872C198.469 62.796 200.251 63.258 202.187 63.258ZM236.025 38.97C237.125 36.77 238.577 35.076 240.381 33.888C242.229 32.656 244.407 32.04 246.915 32.04V39.828H245.001C242.053 39.828 239.809 40.576 238.269 42.072C236.773 43.568 236.025 46.164 236.025 49.86V69H228.501V32.634H236.025V38.97ZM268.219 50.85L284.983 69H274.819L261.355 53.358V69H253.831V20.16H261.355V48.54L274.555 32.634H284.983L268.219 50.85ZM287.868 50.652C287.868 47 288.616 43.766 290.112 40.95C291.652 38.134 293.72 35.956 296.316 34.416C298.956 32.832 301.86 32.04 305.028 32.04C307.888 32.04 310.374 32.612 312.486 33.756C314.642 34.856 316.358 36.242 317.634 37.914V32.634H325.224V69H317.634V63.588C316.358 65.304 314.62 66.734 312.42 67.878C310.22 69.022 307.712 69.594 304.896 69.594C301.772 69.594 298.912 68.802 296.316 67.218C293.72 65.59 291.652 63.346 290.112 60.486C288.616 57.582 287.868 54.304 287.868 50.652ZM317.634 50.784C317.634 48.276 317.106 46.098 316.05 44.25C315.038 42.402 313.696 40.994 312.024 40.026C310.352 39.058 308.548 38.574 306.612 38.574C304.676 38.574 302.872 39.058 301.2 40.026C299.528 40.95 298.164 42.336 297.108 44.184C296.096 45.988 295.59 48.144 295.59 50.652C295.59 53.16 296.096 55.36 297.108 57.252C298.164 59.144 299.528 60.596 301.2 61.608C302.916 62.576 304.72 63.06 306.612 63.06C308.548 63.06 310.352 62.576 312.024 61.608C313.696 60.64 315.038 59.232 316.05 57.384C317.106 55.492 317.634 53.292 317.634 50.784ZM353.916 32.04C356.688 32.04 359.152 32.634 361.308 33.822C363.508 35.01 365.224 36.77 366.456 39.102C367.732 41.434 368.37 44.25 368.37 47.55V69H360.912V48.672C360.912 45.416 360.098 42.93 358.47 41.214C356.842 39.454 354.62 38.574 351.804 38.574C348.988 38.574 346.744 39.454 345.072 41.214C343.444 42.93 342.63 45.416 342.63 48.672V69H335.106V20.16H342.63V36.858C343.906 35.318 345.512 34.13 347.448 33.294C349.428 32.458 351.584 32.04 353.916 32.04ZM393.742 69.594C390.31 69.594 387.208 68.824 384.436 67.284C381.664 65.7 379.486 63.5 377.902 60.684C376.318 57.824 375.526 54.524 375.526 50.784C375.526 47.088 376.34 43.81 377.968 40.95C379.596 38.09 381.818 35.89 384.634 34.35C387.45 32.81 390.596 32.04 394.072 32.04C397.548 32.04 400.694 32.81 403.51 34.35C406.326 35.89 408.548 38.09 410.176 40.95C411.804 43.81 412.618 47.088 412.618 50.784C412.618 54.48 411.782 57.758 410.11 60.618C408.438 63.478 406.15 65.7 403.246 67.284C400.386 68.824 397.218 69.594 393.742 69.594ZM393.742 63.258C395.678 63.258 397.482 62.774 399.154 61.806C400.87 60.838 402.256 59.43 403.312 57.582C404.368 55.69 404.896 53.424 404.896 50.784C404.896 48.144 404.39 45.9 403.378 44.052C402.366 42.16 401.024 40.752 399.352 39.828C397.68 38.86 395.876 38.376 393.94 38.376C392.004 38.376 390.222 38.86 388.594 39.828C386.966 40.752 385.646 42.16 384.634 44.052C383.666 45.9 383.182 48.144 383.182 50.784C383.182 53.424 383.644 55.69 384.568 57.582C385.536 59.474 386.812 60.904 388.396 61.872C390.024 62.796 391.806 63.258 393.742 63.258ZM427.579 20.16V69H420.055V20.16H427.579ZM441.286 27.816C439.922 27.816 438.778 27.354 437.854 26.43C436.93 25.506 436.468 24.362 436.468 22.998C436.468 21.634 436.93 20.49 437.854 19.566C438.778 18.642 439.922 18.18 441.286 18.18C442.606 18.18 443.728 18.642 444.652 19.566C445.576 20.49 446.038 21.634 446.038 22.998C446.038 24.362 445.576 25.506 444.652 26.43C443.728 27.354 442.606 27.816 441.286 27.816ZM444.982 32.634V69H437.458V32.634H444.982ZM452.352 50.784C452.352 47.044 453.1 43.766 454.596 40.95C456.136 38.09 458.248 35.89 460.932 34.35C463.616 32.81 466.696 32.04 470.172 32.04C474.572 32.04 478.202 33.096 481.062 35.208C483.966 37.276 485.924 40.246 486.936 44.118H478.818C478.158 42.314 477.102 40.906 475.65 39.894C474.198 38.882 472.372 38.376 470.172 38.376C467.092 38.376 464.628 39.476 462.78 41.676C460.976 43.832 460.074 46.868 460.074 50.784C460.074 54.7 460.976 57.758 462.78 59.958C464.628 62.158 467.092 63.258 470.172 63.258C474.528 63.258 477.41 61.344 478.818 57.516H486.936C485.88 61.212 483.9 64.16 480.996 66.36C478.092 68.516 474.484 69.594 470.172 69.594C466.696 69.594 463.616 68.824 460.932 67.284C458.248 65.7 456.136 63.5 454.596 60.684C453.1 57.824 452.352 54.524 452.352 50.784Z" fill="#4C5C64"/>
<circle cx="50" cy="50" r="37.5" stroke="#F2C93A" stroke-width="25"/>
</svg>
